@startuml diagrama_contexto_seleccionador

skinparam {
    StateFontSize 14
    StateFontColor black
    StateBackgroundColor #f0f8ff
    StateBorderColor #4682b4
    ArrowColor #4682b4
    ArrowFontColor #191970
    ArrowFontSize 12
}

state "NO_AUTENTICADO" as NoAuth
state "MENU_PRINCIPAL" as Menu
state "MENU_ESTADISTICAS" as Menu_estadisticas
state "MENU_USUARIOS" as Menu_usuarios
state "VER_USUARIO" as Ver_usuario

[*] --> NoAuth

NoAuth --> Menu
    note on link
        Iniciar sesión
    end note

Menu --> NoAuth
    note on link
        Cerrar sesión
    end note

Menu --> Menu_usuarios
    note on link
        Gestionar usuarios
    end note

Menu_usuarios --> Menu
    note on link
        Volver
    end note

Menu_usuarios --> Ver_usuario
    note on link
        Ver lista
    end note

Ver_usuario --> Menu_usuarios
    note on link
        Volver
    end note

Menu --> Menu_estadisticas
    note on link
        Consultar estadísticas
    end note

Menu_estadisticas --> Menu
    note on link
        Volver
    end note

Menu_estadisticas --> Consultar_estadísticas
    note on link
        Consultar estadísticas
    end note

Consultar_estadísticas --> Menu_estadisticas
    note on link
        Volver
    end note


@enduml