@startuml

skinparam {
    StateFontSize 14
    StateFontColor black
    StateBackgroundColor #f0f8ff
    StateBorderColor #4682b4
    ArrowColor #4682b4
    ArrowFontColor #191970
    ArrowFontSize 12
}

state "NO_AUTENTICADO" as NoAuth
state "MENU_PRINCIPAL" as Menu
state "MENU_USUARIOS" as Menu_usuarios
state "CREAR_USUARIO" as Crear_usuario
state "VER_USUARIO" as Ver_usuario
state "EDITAR_USUARIO" as Editar_usuario
state "ELIMINAR_USUARIO" as Eliminar_usuario

[*] --> NoAuth

NoAuth --> Menu
    note on link
        Iniciar sesión
    end note

Menu --> NoAuth
    note on link
        Cerrar sesión
    end note

Menu --> Menu_usuarios
    note on link
        Gestionar usuarios
    end note

Menu_usuarios --> Menu
    note on link
        Volver
    end note

Menu_usuarios --> Crear_usuario
    note on link
        Insertar registro
    end note

Crear_usuario --> Menu_usuarios
    note on link
        Guardar
    end note

Menu_usuarios --> Editar_usuario
    note on link
        Actualizar registro
    end note

Editar_usuario --> Menu_usuarios
    note on link
        Guardar
    end note

Menu_usuarios --> Ver_usuario
    note on link
        Ver lista
    end note

Ver_usuario --> Menu_usuarios
    note on link
        Volver
    end note

Menu_usuarios --> Eliminar_usuario
    note on link
        Borrar usuario
    end note

Eliminar_usuario --> Menu_usuarios
    note on link
        Guardar
    end note



@enduml